  0
SECTION
  2
HEADER
  9
$ACADVER
  1
AC1009
  9
$INSUNITS
  70
9
  9
$EXTMIN
  10
0
  20
-398.6
  9
$EXTMAX
  10
577.5
  20
374.8
  0
ENDSEC
  0
SECTION
  2
TABLES
  0
TABLE
  2
LTYPE
  70
1
  0
LTYPE
  2
CONTINUOUS
  70
64
  3
Solid line
  72
65
  73
0
  40
0
  0
ENDTAB
  0
TABLE
  2
LAYER
  70
2
  0
LAYER
  2
Default
  70
0
  62
1
  6
CONTINUOUS
  0
LAYER
  2
NA
  70
0
  62
136
  6
CONTINUOUS
  0
ENDTAB
  0
ENDSEC
  0
SECTION
  2
BLOCKS
  0
BLOCK
  2
lab_p4_6
  3
lab_p4_6
  10
0
  20
0
  70
0
  0
POLYLINE
  8
NA
  70
1
  66
1
  0
VERTEX
  8
NA
  10
490.5
  20
97
  0
VERTEX
  8
NA
  10
490.5
  20
-120.8
  0
VERTEX
  8
NA
  10
526.5
  20
-120.8
  0
VERTEX
  8
NA
  10
526.5
  20
97
  0
SEQEND
  0
POLYLINE
  8
NA
  70
1
  66
1
  0
VERTEX
  8
NA
  10
444.5
  20
97
  0
VERTEX
  8
NA
  10
444.5
  20
-120.8
  0
VERTEX
  8
NA
  10
480.5
  20
-120.8
  0
VERTEX
  8
NA
  10
480.5
  20
97
  0
SEQEND
  0
POLYLINE
  8
NA
  70
1
  66
1
  0
VERTEX
  8
NA
  10
436.8
  20
-348.6
  0
VERTEX
  8
NA
  10
436.8
  20
-130.8
  0
VERTEX
  8
NA
  10
391.8
  20
-130.8
  0
VERTEX
  8
NA
  10
391.8
  20
-348.6
  0
SEQEND
  0
POLYLINE
  8
NA
  70
1
  66
1
  0
VERTEX
  8
NA
  10
577.5
  20
-348.6
  0
VERTEX
  8
NA
  10
577.5
  20
-130.8
  0
VERTEX
  8
NA
  10
532.5
  20
-130.8
  0
VERTEX
  8
NA
  10
532.5
  20
-348.6
  0
SEQEND
  0
POLYLINE
  8
NA
  70
1
  66
1
  0
VERTEX
  8
NA
  10
531.5
  20
324.8
  0
VERTEX
  8
NA
  10
531.5
  20
107
  0
VERTEX
  8
NA
  10
576.5
  20
107
  0
VERTEX
  8
NA
  10
576.5
  20
324.8
  0
SEQEND
  0
POLYLINE
  8
NA
  70
1
  66
1
  0
VERTEX
  8
NA
  10
390.8
  20
324.8
  0
VERTEX
  8
NA
  10
390.8
  20
107
  0
VERTEX
  8
NA
  10
435.8
  20
107
  0
VERTEX
  8
NA
  10
435.8
  20
324.8
  0
SEQEND
  0
POLYLINE
  8
NA
  70
1
  66
1
  0
VERTEX
  8
NA
  10
532
  20
374.8
  0
VERTEX
  8
NA
  10
532
  20
324.8
  0
VERTEX
  8
NA
  10
576
  20
324.8
  0
VERTEX
  8
NA
  10
576
  20
374.8
  0
SEQEND
  0
POLYLINE
  8
NA
  70
1
  66
1
  0
VERTEX
  8
NA
  10
391.3
  20
374.8
  0
VERTEX
  8
NA
  10
391.3
  20
324.8
  0
VERTEX
  8
NA
  10
435.3
  20
324.8
  0
VERTEX
  8
NA
  10
435.3
  20
374.8
  0
SEQEND
  0
POLYLINE
  8
NA
  70
1
  66
1
  0
VERTEX
  8
NA
  10
435.8
  20
107
  0
VERTEX
  8
NA
  10
458.8
  20
107
  0
VERTEX
  8
NA
  10
458.8
  20
102
  0
VERTEX
  8
NA
  10
471.8
  20
102
  0
VERTEX
  8
NA
  10
471.8
  20
97
  0
VERTEX
  8
NA
  10
435.8
  20
97
  0
SEQEND
  0
POLYLINE
  8
NA
  70
1
  66
1
  0
VERTEX
  8
NA
  10
435.8
  20
97
  0
VERTEX
  8
NA
  10
408.3
  20
97
  0
VERTEX
  8
NA
  10
408.3
  20
102
  0
VERTEX
  8
NA
  10
390.8
  20
102
  0
VERTEX
  8
NA
  10
390.8
  20
107
  0
VERTEX
  8
NA
  10
435.8
  20
107
  0
SEQEND
  0
POLYLINE
  8
NA
  70
1
  66
1
  0
VERTEX
  8
NA
  10
531.5
  20
107
  0
VERTEX
  8
NA
  10
576.5
  20
107
  0
VERTEX
  8
NA
  10
576.5
  20
102
  0
VERTEX
  8
NA
  10
559
  20
102
  0
VERTEX
  8
NA
  10
559
  20
97
  0
VERTEX
  8
NA
  10
531.5
  20
97
  0
SEQEND
  0
POLYLINE
  8
NA
  70
1
  66
1
  0
VERTEX
  8
NA
  10
531.5
  20
97
  0
VERTEX
  8
NA
  10
495.5
  20
97
  0
VERTEX
  8
NA
  10
495.5
  20
102
  0
VERTEX
  8
NA
  10
508.5
  20
102
  0
VERTEX
  8
NA
  10
508.5
  20
107
  0
VERTEX
  8
NA
  10
531.5
  20
107
  0
SEQEND
  0
POLYLINE
  8
NA
  70
1
  66
1
  0
VERTEX
  8
NA
  10
532.5
  20
-130.8
  0
VERTEX
  8
NA
  10
509.5
  20
-130.8
  0
VERTEX
  8
NA
  10
509.5
  20
-125.8
  0
VERTEX
  8
NA
  10
496.5
  20
-125.8
  0
VERTEX
  8
NA
  10
496.5
  20
-120.8
  0
VERTEX
  8
NA
  10
532.5
  20
-120.8
  0
SEQEND
  0
POLYLINE
  8
NA
  70
1
  66
1
  0
VERTEX
  8
NA
  10
532.5
  20
-120.8
  0
VERTEX
  8
NA
  10
560
  20
-120.8
  0
VERTEX
  8
NA
  10
560
  20
-125.8
  0
VERTEX
  8
NA
  10
577.5
  20
-125.8
  0
VERTEX
  8
NA
  10
577.5
  20
-130.8
  0
VERTEX
  8
NA
  10
532.5
  20
-130.8
  0
SEQEND
  0
POLYLINE
  8
NA
  70
1
  66
1
  0
VERTEX
  8
NA
  10
436.8
  20
-120.8
  0
VERTEX
  8
NA
  10
472.8
  20
-120.8
  0
VERTEX
  8
NA
  10
472.8
  20
-125.8
  0
VERTEX
  8
NA
  10
459.8
  20
-125.8
  0
VERTEX
  8
NA
  10
459.8
  20
-130.8
  0
VERTEX
  8
NA
  10
436.8
  20
-130.8
  0
SEQEND
  0
POLYLINE
  8
NA
  70
1
  66
1
  0
VERTEX
  8
NA
  10
436.8
  20
-130.8
  0
VERTEX
  8
NA
  10
391.8
  20
-130.8
  0
VERTEX
  8
NA
  10
391.8
  20
-125.8
  0
VERTEX
  8
NA
  10
409.3
  20
-125.8
  0
VERTEX
  8
NA
  10
409.3
  20
-120.8
  0
VERTEX
  8
NA
  10
436.8
  20
-120.8
  0
SEQEND
  0
POLYLINE
  8
NA
  70
1
  66
1
  0
VERTEX
  8
NA
  10
533
  20
-348.6
  0
VERTEX
  8
NA
  10
533
  20
-398.6
  0
VERTEX
  8
NA
  10
577
  20
-398.6
  0
VERTEX
  8
NA
  10
577
  20
-348.6
  0
SEQEND
  0
POLYLINE
  8
NA
  70
1
  66
1
  0
VERTEX
  8
NA
  10
392.3
  20
-348.6
  0
VERTEX
  8
NA
  10
392.3
  20
-398.6
  0
VERTEX
  8
NA
  10
436.3
  20
-398.6
  0
VERTEX
  8
NA
  10
436.3
  20
-348.6
  0
SEQEND
  0
ENDBLK
  0
ENDSEC
  0
SECTION
  2
ENTITIES
  0
INSERT
  8
Default
  2
lab_p4_6
  10
0
  20
0
  50
0
  41
1
  42
1
  0
ENDSEC
  0
EOF
