  0
SECTION
  2
HEADER
  9
$ACADVER
  1
AC1009
  9
$INSUNITS
  70
9
  9
$EXTMIN
  10
-1364
  20
-434
  9
$EXTMAX
  10
0
  20
600
  0
ENDSEC
  0
SECTION
  2
TABLES
  0
TABLE
  2
LTYPE
  70
1
  0
LTYPE
  2
CONTINUOUS
  70
64
  3
Solid line
  72
65
  73
0
  40
0
  0
ENDTAB
  0
TABLE
  2
LAYER
  70
2
  0
LAYER
  2
Default
  70
0
  62
1
  6
CONTINUOUS
  0
LAYER
  2
NA
  70
0
  62
136
  6
CONTINUOUS
  0
ENDTAB
  0
ENDSEC
  0
SECTION
  2
BLOCKS
  0
BLOCK
  2
lab_p6_2
  3
lab_p6_2
  10
0
  20
0
  70
0
  0
POLYLINE
  8
NA
  70
1
  66
1
  0
VERTEX
  8
NA
  10
-681
  20
61
  0
VERTEX
  8
NA
  10
-531
  20
61
  0
VERTEX
  8
NA
  10
-531
  20
104.6
  0
VERTEX
  8
NA
  10
-681
  20
104.6
  0
SEQEND
  0
POLYLINE
  8
NA
  70
1
  66
1
  0
VERTEX
  8
NA
  10
-727
  20
150
  0
VERTEX
  8
NA
  10
-683.4
  20
150
  0
VERTEX
  8
NA
  10
-683.4
  20
144
  0
VERTEX
  8
NA
  10
-727
  20
144
  0
SEQEND
  0
POLYLINE
  8
NA
  70
1
  66
1
  0
VERTEX
  8
NA
  10
-725.3
  20
22
  0
VERTEX
  8
NA
  10
-681.7
  20
22
  0
VERTEX
  8
NA
  10
-681.7
  20
16
  0
VERTEX
  8
NA
  10
-725.3
  20
16
  0
SEQEND
  0
POLYLINE
  8
NA
  70
1
  66
1
  0
VERTEX
  8
NA
  10
-1364
  20
60.2
  0
VERTEX
  8
NA
  10
-1314
  20
60.2
  0
VERTEX
  8
NA
  10
-1314
  20
103.7
  0
VERTEX
  8
NA
  10
-1364
  20
103.7
  0
SEQEND
  0
POLYLINE
  8
NA
  70
1
  66
1
  0
VERTEX
  8
NA
  10
-854.9
  20
60.2
  0
VERTEX
  8
NA
  10
-825.9
  20
60.2
  0
VERTEX
  8
NA
  10
-825.9
  20
103.7
  0
VERTEX
  8
NA
  10
-854.9
  20
103.7
  0
SEQEND
  0
POLYLINE
  8
NA
  70
1
  66
1
  0
VERTEX
  8
NA
  10
-1314
  20
71
  0
VERTEX
  8
NA
  10
-854.9
  20
71
  0
VERTEX
  8
NA
  10
-854.9
  20
92.9
  0
VERTEX
  8
NA
  10
-1314
  20
92.9
  0
SEQEND
  0
POLYLINE
  8
NA
  70
1
  66
1
  0
VERTEX
  8
NA
  10
-775.3
  20
16
  0
VERTEX
  8
NA
  10
-725.3
  20
16
  0
VERTEX
  8
NA
  10
-725.3
  20
22
  0
VERTEX
  8
NA
  10
-775.3
  20
22
  0
SEQEND
  0
POLYLINE
  8
NA
  70
1
  66
1
  0
VERTEX
  8
NA
  10
-727
  20
150
  0
VERTEX
  8
NA
  10
-777
  20
150
  0
VERTEX
  8
NA
  10
-777
  20
144
  0
VERTEX
  8
NA
  10
-727
  20
144
  0
SEQEND
  0
POLYLINE
  8
NA
  70
1
  66
1
  0
VERTEX
  8
NA
  10
-781.3
  20
16
  0
VERTEX
  8
NA
  10
-781.3
  20
-384
  0
VERTEX
  8
NA
  10
-775.3
  20
-384
  0
VERTEX
  8
NA
  10
-775.3
  20
16
  0
SEQEND
  0
POLYLINE
  8
NA
  70
1
  66
1
  0
VERTEX
  8
NA
  10
-777
  20
150
  0
VERTEX
  8
NA
  10
-777
  20
550
  0
VERTEX
  8
NA
  10
-783
  20
550
  0
VERTEX
  8
NA
  10
-783
  20
150
  0
SEQEND
  0
POLYLINE
  8
NA
  70
1
  66
1
  0
VERTEX
  8
NA
  10
-800.1
  20
-384
  0
VERTEX
  8
NA
  10
-800.1
  20
-434
  0
VERTEX
  8
NA
  10
-756.5
  20
-434
  0
VERTEX
  8
NA
  10
-756.5
  20
-384
  0
SEQEND
  0
POLYLINE
  8
NA
  70
1
  66
1
  0
VERTEX
  8
NA
  10
-758.2
  20
550
  0
VERTEX
  8
NA
  10
-758.2
  20
600
  0
VERTEX
  8
NA
  10
-801.8
  20
600
  0
VERTEX
  8
NA
  10
-801.8
  20
550
  0
SEQEND
  0
POLYLINE
  8
NA
  70
1
  66
1
  0
VERTEX
  8
NA
  10
-825.9
  20
60.2
  0
VERTEX
  8
NA
  10
-765.9
  20
60.2
  0
VERTEX
  8
NA
  10
-765.9
  20
103.7
  0
VERTEX
  8
NA
  10
-825.9
  20
103.7
  0
SEQEND
  0
POLYLINE
  8
NA
  70
1
  66
1
  0
VERTEX
  8
NA
  10
-781.3
  20
16
  0
VERTEX
  8
NA
  10
-781.3
  20
22
  0
VERTEX
  8
NA
  10
-775.3
  20
22
  0
VERTEX
  8
NA
  10
-775.3
  20
16
  0
SEQEND
  0
POLYLINE
  8
NA
  70
1
  66
1
  0
VERTEX
  8
NA
  10
-777
  20
150
  0
VERTEX
  8
NA
  10
-777
  20
144
  0
VERTEX
  8
NA
  10
-783
  20
144
  0
VERTEX
  8
NA
  10
-783
  20
150
  0
SEQEND
  0
POLYLINE
  8
NA
  70
1
  66
1
  0
VERTEX
  8
NA
  10
-683.4
  20
150
  0
VERTEX
  8
NA
  10
-683.4
  20
424.2
  0
VERTEX
  8
NA
  10
-727
  20
424.2
  0
VERTEX
  8
NA
  10
-727
  20
150
  0
SEQEND
  0
POLYLINE
  8
NA
  70
1
  66
1
  0
VERTEX
  8
NA
  10
-725.3
  20
16
  0
VERTEX
  8
NA
  10
-725.3
  20
-258.2
  0
VERTEX
  8
NA
  10
-681.7
  20
-258.2
  0
VERTEX
  8
NA
  10
-681.7
  20
16
  0
SEQEND
  0
ENDBLK
  0
ENDSEC
  0
SECTION
  2
ENTITIES
  0
INSERT
  8
Default
  2
lab_p6_2
  10
0
  20
0
  50
0
  41
1
  42
1
  0
ENDSEC
  0
EOF
