  0
SECTION
  2
HEADER
  9
$ACADVER
  1
AC1009
  9
$INSUNITS
  70
9
  9
$EXTMIN
  10
-1349
  20
-423
  9
$EXTMAX
  10
0
  20
577
  0
ENDSEC
  0
SECTION
  2
TABLES
  0
TABLE
  2
LTYPE
  70
1
  0
LTYPE
  2
CONTINUOUS
  70
64
  3
Solid line
  72
65
  73
0
  40
0
  0
ENDTAB
  0
TABLE
  2
LAYER
  70
2
  0
LAYER
  2
Default
  70
0
  62
1
  6
CONTINUOUS
  0
LAYER
  2
NA
  70
0
  62
136
  6
CONTINUOUS
  0
ENDTAB
  0
ENDSEC
  0
SECTION
  2
BLOCKS
  0
BLOCK
  2
lab_p6_2
  3
lab_p6_2
  10
0
  20
0
  70
0
  0
POLYLINE
  8
NA
  70
1
  66
1
  0
VERTEX
  8
NA
  10
-664
  20
53
  0
VERTEX
  8
NA
  10
-514
  20
53
  0
VERTEX
  8
NA
  10
-514
  20
96.6
  0
VERTEX
  8
NA
  10
-664
  20
96.6
  0
SEQEND
  0
POLYLINE
  8
NA
  70
1
  66
1
  0
VERTEX
  8
NA
  10
-726
  20
127
  0
VERTEX
  8
NA
  10
-682.4
  20
127
  0
VERTEX
  8
NA
  10
-682.4
  20
121
  0
VERTEX
  8
NA
  10
-726
  20
121
  0
SEQEND
  0
POLYLINE
  8
NA
  70
1
  66
1
  0
VERTEX
  8
NA
  10
-726.3
  20
33
  0
VERTEX
  8
NA
  10
-682.7
  20
33
  0
VERTEX
  8
NA
  10
-682.7
  20
27
  0
VERTEX
  8
NA
  10
-726.3
  20
27
  0
SEQEND
  0
POLYLINE
  8
NA
  70
1
  66
1
  0
VERTEX
  8
NA
  10
-1349
  20
55.2
  0
VERTEX
  8
NA
  10
-1299
  20
55.2
  0
VERTEX
  8
NA
  10
-1299
  20
98.7
  0
VERTEX
  8
NA
  10
-1349
  20
98.7
  0
SEQEND
  0
POLYLINE
  8
NA
  70
1
  66
1
  0
VERTEX
  8
NA
  10
-839.9
  20
55.2
  0
VERTEX
  8
NA
  10
-810.9
  20
55.2
  0
VERTEX
  8
NA
  10
-810.9
  20
98.7
  0
VERTEX
  8
NA
  10
-839.9
  20
98.7
  0
SEQEND
  0
POLYLINE
  8
NA
  70
1
  66
1
  0
VERTEX
  8
NA
  10
-1299
  20
66
  0
VERTEX
  8
NA
  10
-839.9
  20
66
  0
VERTEX
  8
NA
  10
-839.9
  20
87.9
  0
VERTEX
  8
NA
  10
-1299
  20
87.9
  0
SEQEND
  0
POLYLINE
  8
NA
  70
1
  66
1
  0
VERTEX
  8
NA
  10
-776.3
  20
27
  0
VERTEX
  8
NA
  10
-726.3
  20
27
  0
VERTEX
  8
NA
  10
-726.3
  20
33
  0
VERTEX
  8
NA
  10
-776.3
  20
33
  0
SEQEND
  0
POLYLINE
  8
NA
  70
1
  66
1
  0
VERTEX
  8
NA
  10
-726
  20
127
  0
VERTEX
  8
NA
  10
-776
  20
127
  0
VERTEX
  8
NA
  10
-776
  20
121
  0
VERTEX
  8
NA
  10
-726
  20
121
  0
SEQEND
  0
POLYLINE
  8
NA
  70
1
  66
1
  0
VERTEX
  8
NA
  10
-782.3
  20
27
  0
VERTEX
  8
NA
  10
-782.3
  20
-373
  0
VERTEX
  8
NA
  10
-776.3
  20
-373
  0
VERTEX
  8
NA
  10
-776.3
  20
27
  0
SEQEND
  0
POLYLINE
  8
NA
  70
1
  66
1
  0
VERTEX
  8
NA
  10
-776
  20
127
  0
VERTEX
  8
NA
  10
-776
  20
527
  0
VERTEX
  8
NA
  10
-782
  20
527
  0
VERTEX
  8
NA
  10
-782
  20
127
  0
SEQEND
  0
POLYLINE
  8
NA
  70
1
  66
1
  0
VERTEX
  8
NA
  10
-801.1
  20
-373
  0
VERTEX
  8
NA
  10
-801.1
  20
-423
  0
VERTEX
  8
NA
  10
-757.5
  20
-423
  0
VERTEX
  8
NA
  10
-757.5
  20
-373
  0
SEQEND
  0
POLYLINE
  8
NA
  70
1
  66
1
  0
VERTEX
  8
NA
  10
-757.2
  20
527
  0
VERTEX
  8
NA
  10
-757.2
  20
577
  0
VERTEX
  8
NA
  10
-800.8
  20
577
  0
VERTEX
  8
NA
  10
-800.8
  20
527
  0
SEQEND
  0
POLYLINE
  8
NA
  70
1
  66
1
  0
VERTEX
  8
NA
  10
-810.9
  20
55.2
  0
VERTEX
  8
NA
  10
-750.9
  20
55.2
  0
VERTEX
  8
NA
  10
-750.9
  20
98.7
  0
VERTEX
  8
NA
  10
-810.9
  20
98.7
  0
SEQEND
  0
POLYLINE
  8
NA
  70
1
  66
1
  0
VERTEX
  8
NA
  10
-782.3
  20
27
  0
VERTEX
  8
NA
  10
-782.3
  20
33
  0
VERTEX
  8
NA
  10
-776.3
  20
33
  0
VERTEX
  8
NA
  10
-776.3
  20
27
  0
SEQEND
  0
POLYLINE
  8
NA
  70
1
  66
1
  0
VERTEX
  8
NA
  10
-776
  20
127
  0
VERTEX
  8
NA
  10
-776
  20
121
  0
VERTEX
  8
NA
  10
-782
  20
121
  0
VERTEX
  8
NA
  10
-782
  20
127
  0
SEQEND
  0
POLYLINE
  8
NA
  70
1
  66
1
  0
VERTEX
  8
NA
  10
-682.4
  20
127
  0
VERTEX
  8
NA
  10
-682.4
  20
401.2
  0
VERTEX
  8
NA
  10
-726
  20
401.2
  0
VERTEX
  8
NA
  10
-726
  20
127
  0
SEQEND
  0
POLYLINE
  8
NA
  70
1
  66
1
  0
VERTEX
  8
NA
  10
-726.3
  20
27
  0
VERTEX
  8
NA
  10
-726.3
  20
-247.2
  0
VERTEX
  8
NA
  10
-682.7
  20
-247.2
  0
VERTEX
  8
NA
  10
-682.7
  20
27
  0
SEQEND
  0
ENDBLK
  0
ENDSEC
  0
SECTION
  2
ENTITIES
  0
INSERT
  8
Default
  2
lab_p6_2
  10
0
  20
0
  50
0
  41
1
  42
1
  0
ENDSEC
  0
EOF
